<?xml version="1.0" encoding="UTF-8" standalone="no"?>
<svg width="140px" height="140px" viewBox="0 0 140 140" version="1.1" xmlns="http://www.w3.org/2000/svg" xmlns:xlink="http://www.w3.org/1999/xlink">
    <!-- Generator: Sketch 48.2 (47327) - http://www.bohemiancoding.com/sketch -->
    <title>coin</title>
    <desc>Created with Sketch.</desc>
    <defs></defs>
    <g id="cryptotab--landing--b" stroke="none" stroke-width="1" fill="none" fill-rule="evenodd" transform="translate(-359.000000, -3332.000000)">
        <g id="4" transform="translate(0.000000, 3200.000000)">
            <g id="1" transform="translate(78.000000, 110.000000)">
                <g id="pic" transform="translate(0.000000, 22.000000)">
                    <g id="bitcoin-logo" transform="translate(281.000000, 0.000000)">
                        <g id="Group">
                            <path d="M137.904758,86.9338583 C128.554387,124.43379 90.5687786,147.255746 53.0600962,137.904279 C15.5667279,128.554998 -7.25789053,90.5716339 2.09685581,53.0738894 C11.4428512,15.5695825 49.4284594,-7.25456084 86.9262032,2.09471928 C124.432698,11.4439994 147.255129,49.4317389 137.904758,86.9338583 Z" id="Shape" fill="#F7931A" fill-rule="nonzero"></path>
                            <path d="M99.605625,58.7806154 C100.999063,49.6095385 93.9071875,44.6793846 84.21,41.3904615 L87.355625,28.9670769 L79.6753125,27.0824615 L76.6128125,39.1784615 C74.59375,38.6830769 72.52,38.2156923 70.459375,37.7526154 L73.54375,25.5769231 L65.8678125,23.6923077 L62.72,36.1113846 C61.04875,35.7366154 59.408125,35.3661538 57.815625,34.9763077 L57.824375,34.9375385 L47.2325,32.3335385 L45.189375,40.4104615 C45.189375,40.4104615 50.8878125,41.6963077 50.7675,41.776 C53.878125,42.5406154 54.4403125,44.5673846 54.34625,46.1741538 L50.763125,60.3270769 C50.9775,60.3809231 51.2553125,60.4584615 51.5615625,60.5790769 C51.305625,60.5166154 51.0321875,60.4476923 50.75,60.3809231 L45.7275,80.2070769 C45.346875,81.1375385 44.3821875,82.5332308 42.2078125,82.0033846 C42.284375,82.1132308 36.6253125,80.6313846 36.6253125,80.6313846 L32.8125,89.2876923 L42.8071875,91.7409231 C44.6665625,92.1996923 46.48875,92.68 48.2825,93.1323077 L45.1040625,105.697846 L52.775625,107.582462 L55.9234375,95.1504615 C58.0190625,95.7104615 60.0534375,96.2273846 62.0440625,96.7141538 L58.9071875,109.088 L66.5875,110.972615 L69.7659375,98.4307692 C82.8625,100.871077 92.710625,99.8867692 96.8559375,88.2236923 C100.19625,78.8329231 96.6896875,73.416 89.7990625,69.8836923 C94.8171875,68.7443077 98.5971875,65.4941538 99.605625,58.7806154 Z M82.0575,83.0092308 C79.6840625,92.4 63.625625,87.3233846 58.419375,86.0504615 L62.636875,69.4033846 C67.843125,70.6827692 84.538125,73.2156923 82.0575,83.0092308 Z M84.433125,58.6449231 C82.2675,67.1870769 68.901875,62.8470769 64.56625,61.7830769 L68.39,46.6846154 C72.725625,47.7486154 86.6884375,49.7344615 84.433125,58.6449231 Z" id="Shape" fill="#FFFFFF" fill-rule="nonzero"></path>
                        </g>
                    </g>
                </g>
            </g>
        </g>
    </g>
</svg>