<?xml version="1.0" encoding="UTF-8" standalone="no"?>
<svg width="5px" height="7px" viewBox="0 0 5 7" version="1.1" xmlns="http://www.w3.org/2000/svg" xmlns:xlink="http://www.w3.org/1999/xlink">
    <!-- Generator: Sketch 48.2 (47327) - http://www.bohemiancoding.com/sketch -->
    <title>question</title>
    <desc>Created with Sketch.</desc>
    <defs></defs>
    <g id="Page-1" stroke="none" stroke-width="1" fill="none" fill-rule="evenodd">
        <g id="question" fill="#FFFFFF">
            <path d="M4.82265641,2.08215876 C4.82265641,1.6997225 4.70184322,1.34644805 4.46105001,1.0215022 C4.22025681,0.696556361 3.91947361,0.444931632 3.5595336,0.266628016 C3.19959359,0.0883243997 2.83048844,-0.000827408312 2.45305135,5.78615537e-06 C1.39906035,5.78615537e-06 0.59419449,0.462428716 0.0384537802,1.38644138 C-0.0265353882,1.49059069 -0.00903830442,1.58140889 0.0901118372,1.65972917 L0.949135333,2.31045404 C0.979963529,2.33711627 1.02079006,2.34961418 1.07244811,2.34961418 C1.14243645,2.34961418 1.1957609,2.32378516 1.23492104,2.2712939 C1.46488271,1.97634306 1.65151827,1.77720959 1.79482772,1.67222708 C1.94230314,1.56891097 2.12977189,1.51641972 2.3547344,1.51641972 C2.56303302,1.51641972 2.74883538,1.57307694 2.9113083,1.68555819 C3.07378123,1.79803945 3.15543428,1.9263514 3.15543428,2.06966084 C3.15543428,2.23463335 3.11210817,2.36711127 3.02545595,2.4670946 C2.93880372,2.56707794 2.7913283,2.66456169 2.58302968,2.76037906 C2.3097419,2.88202545 2.05895036,3.0703274 1.83148827,3.32361852 C1.60402618,3.57774283 1.48987854,3.84936423 1.48987854,4.1401491 L1.48987854,4.37427674 C1.48987854,4.43426674 1.50904202,4.48509161 1.54820216,4.52425175 C1.5873623,4.56424508 1.63735396,4.58340855 1.69817716,4.58257536 L2.94796886,4.58257536 C3.00879206,4.58257536 3.05878373,4.56341189 3.09794387,4.52425175 C3.1379372,4.4859248 3.15626748,4.43509994 3.15626748,4.37427674 C3.15626748,4.29179049 3.20292637,4.1843084 3.29624415,4.05183048 C3.38956193,3.91935256 3.50787554,3.81103728 3.65118499,3.72938422 C3.79032847,3.65106394 3.89614417,3.58940755 3.97029847,3.54358186 C4.04361959,3.49775616 4.14443612,3.42193546 4.26941529,3.31611977 C4.39522765,3.21030407 4.49187821,3.10615476 4.55936696,3.00367184 C4.62685571,2.90118892 4.68767891,2.7695442 4.74183655,2.60957086 C4.79599419,2.44876433 4.82265641,2.27296029 4.82348961,2.08215876 L4.82265641,2.08215876 Z" id="Path"></path>
            <path d="M3.15626748,6.45642972 L3.15626748,5.20663801 C3.15626748,5.14664801 3.13710401,5.09582315 3.09794387,5.05666301 C3.05878373,5.01666968 3.00879206,4.9975062 2.94796886,4.9983394 L1.69817716,4.9983394 C1.63735396,4.9983394 1.5873623,5.01750287 1.54820216,5.05666301 C1.50820882,5.09498996 1.48987854,5.14581482 1.48987854,5.20663801 L1.48987854,6.45642972 C1.48987854,6.51641972 1.50904202,6.56724458 1.54820216,6.60640472 C1.5873623,6.64639805 1.63735396,6.66556153 1.69817716,6.66472833 L2.94796886,6.66472833 C3.00879206,6.66472833 3.05878373,6.64556486 3.09794387,6.60640472 C3.1379372,6.56807777 3.15626748,6.51725291 3.15626748,6.45642972 L3.15626748,6.45642972 Z" id="Path"></path>
        </g>
    </g>
</svg>